<svg id="Layer_1" data-name="Layer 1" xmlns="http://www.w3.org/2000/svg" viewBox="0 0 444.96 470.99">
  <style>
    path {
      fill: #fff5ba;
    }
  </style>
  <title>Logo</title>
  <path d="M631.72,51.7c4.08.55,8.18,1,12.23,1.68,9.36,1.64,13.7,5.93,15.57,15.26,3.61,18,3.15,36.26,2.66,54.49q-.07,2.66-.26,5.32a6.19,6.19,0,1,1-12.38-.29c0-1.87.17-3.74.23-5.61.49-15.47,1-31-1.55-46.31-1.88-11.33-.67-10.72-12.51-11.3-15-.74-30.12,0-45.18.17-1.48,0-3,.18-4.43.21-4.07.08-6.9-2.32-7-5.93s2.52-6.23,6.6-6.47c4.82-.29,9.65-.46,14.47-.74,1.26-.07,2.52-.32,3.77-.48Z" transform="translate(-223.45 -51.7)"/>
  <path d="M223.45,450.5c.18-1.55.43-3.09.52-4.65.25-4,2.85-6.72,6.44-6.58s6.06,3,6,7c-.14,7.49-.73,15-.43,22.46.42,10.71,1.14,21.43,2.38,32.07.78,6.73,1.42,7.27,8.16,7.65,11.69.65,23.41.78,35.13.84,6,0,12-.6,18-.84,4.28-.17,7.15,2.28,7.23,6,.08,3.57-2.58,6.29-6.69,6.36-16.64.28-33.28.53-49.92.59a56.67,56.67,0,0,1-9.94-1.3c-7.18-1.27-11.74-5.67-13.22-12.64-1.42-6.72-2.08-13.6-3.05-20.41-.25-1.73-.4-3.48-.59-5.23Z" transform="translate(-223.45 -51.7)"/>
  <path d="M596.81,522.69c-1.55-.18-3.09-.43-4.65-.52-4-.24-6.73-2.85-6.58-6.43s3-6.08,7-6c6.3.14,12.62.71,18.9.44,11.88-.51,23.78-1.14,35.6-2.39,6.77-.71,7.31-1.42,7.68-8.11.64-11.78.78-23.6.85-35.41,0-5.9-.6-11.8-.84-17.71-.18-4.31,2.23-7.17,5.94-7.3s6.2,2.64,6.47,6.92c.37,5.78.79,11.55,1.19,17.33v27.81c-.4,3.4-.81,6.79-1.2,10.19-1.26,11.15-5.57,16.09-16,18.23-2.21.45-4.44.89-6.68,1.16-5.45.65-10.92,1.19-16.38,1.78Z" transform="translate(-223.45 -51.7)"/>
  <path d="M294.45,51.7c1.75.18,3.49.43,5.25.54,4,.26,6.72,2.85,6.57,6.45s-3,6-7,6c-13.39,0-26.78-.22-40.16.15-5.85.16-11.67,1.55-17.5,2.44a4.3,4.3,0,0,0-4.07,4.25C237.06,76.8,236,82.08,236,87.36c0,12.3.54,24.61.86,36.91,0,1.38.17,2.75.18,4.13,0,3.72-2.28,6.43-5.65,6.7a6.21,6.21,0,0,1-6.69-6c-.38-4.91-.51-9.83-.8-14.75-.08-1.36-.32-2.71-.48-4.06V83.06c.4-3.4.82-6.8,1.2-10.2,1.26-11.11,5.64-16.13,16-18.22,2.21-.45,4.44-.88,6.68-1.15,5.45-.65,10.91-1.2,16.37-1.79Z" transform="translate(-223.45 -51.7)"/>
  <path d="M538.16,352.28c-1.35,7-2.71,14-4,20.92-1,5.23-2,10.45-2.77,15.71a9.94,9.94,0,0,0,.57,5.13c3,6.9,6.59,13.46,12.38,18.51,5.31,4.62,9.28,4.86,14.71.33a62.15,62.15,0,0,0,7.92-8.32c4.29-5.21,10.21-6.42,15-2.79s5.51,10,1.41,15.45c-4.35,5.8-9.27,11-15.51,14.83-11.47,7-24.14,6.4-34.78-1.85-4.35-3.37-8.39-7.13-12.69-10.8-6.52,7.34-15.9,10.65-27.09,8.59-11.86-2.18-17.49-10.36-20.07-21.36-4,4.81-7.7,9.58-11.83,13.89a32.08,32.08,0,0,1-8.43,6.34c-9.07,4.63-18.23,2.24-24.32-6-3.74-5-5.58-10.83-6.68-16.88a95.88,95.88,0,0,1,1.15-39.59c5.83-24.7,40.26-36.52,58.79-18a4.14,4.14,0,0,0,.63.4c2.83-1.81,5.91-2.93,9.41-1.94a10.17,10.17,0,0,1,7.29,12.63c-3,11.05-5.76,22.14-6.13,33.64a61,61,0,0,0,.79,11.74c.27,1.66,1.58,3.83,3,4.47,2.57,1.15,5.87.94,7.51-1.62a31.52,31.52,0,0,0,4.62-10.33c3-14.76,5.46-29.63,8.27-44.43.44-2.33-.27-3.07-2.28-4.11a207.39,207.39,0,0,1-18.93-10.76,9.92,9.92,0,0,1-2.48-14.74c3.7-4.72,9.81-5.25,15-1.51,2.95,2.12,6.1,4,9.22,5.84a43.38,43.38,0,0,0,4.11,1.93c1.91-7.39,3.53-14.59,5.68-21.63a84.93,84.93,0,0,1,5.74-14.5c3-5.71,8.77-7.91,13.88-6.08a10.42,10.42,0,0,1,4.95,15.84A24.42,24.42,0,0,0,548.8,308c-2.3,7.7-4.29,15.49-6.5,23.6,7.1.19,13.18-1.59,19.28-3.61a15.77,15.77,0,0,1,7.43-.71,9.74,9.74,0,0,1,7.65,9,10,10,0,0,1-6.26,10.11A71,71,0,0,1,542,352.28Zm-93.92,55.83c1.19-.89,1.61-1.14,2-1.48.84-.83,1.69-1.65,2.46-2.55,9.06-10.64,15.64-22.85,22.17-35.09a2.33,2.33,0,0,0,.35-1.63c-1.41-3.52-3.16-6.85-7-8.36-7.93-3.15-18.56,2.07-20.84,10.35a66.38,66.38,0,0,0-1.86,24.58C442,398.47,443.21,402.93,444.24,408.11Z" transform="translate(-223.45 -51.7)"/>
  <path d="M367.21,345.63c2,1,4,2,5.88,2.94,12.34,6.4,18,17.14,19.59,30.44,1,8.63-.66,17.09-2.05,25.55a46.08,46.08,0,0,0-.72,5.86c-.2,5.85,4.42,9.07,10.08,7.58a15.65,15.65,0,0,1,8-.14c4.14,1.21,6.24,4.65,6.56,9a10,10,0,0,1-6.07,10c-7.72,3.38-15.48,3.46-23.15-.24-11.17-5.4-17.15-15.83-15.89-28.17.72-7.05,2-14,2.68-21.1a32.44,32.44,0,0,0-.43-8.82c-1.69-9.46-8.75-13.26-17.13-14.69-6.17-1-12.54-.85-18.83-1.22-1.66-.1-2.09.72-2.31,2.27q-3.69,26.34-7.53,52.66c-.9,6.18-6.08,10.19-11.88,9.26s-9.5-6.25-8.61-12.4c4.08-28.48,8.06-57,12.22-85.43.82-5.6,1.67-11.11,0-16.68a12.2,12.2,0,0,0-.51-1.69c-4.56-9.89-9.6-12-18.62-7.54-7.58,3.72-12.4,10.16-16.26,17.43-2.69,5.07-7.89,7.16-12.95,5.3a10.27,10.27,0,0,1-6.22-13c6.16-18.39,27.3-33.29,46.5-32.54a20.47,20.47,0,0,1,8.18,2.13c15.3,7.72,23.71,24.64,21.41,42.6-.38,2.93-.92,5.84-1.36,8.76-.51,3.36.94,4.72,4.14,3.45A38.34,38.34,0,0,0,349.4,333c7.65-5.26,13.79-12.13,19.22-19.53,7.16-9.76,13.83-19.89,20.63-29.92,2.57-3.79,6-5.7,10.52-5.15a10.27,10.27,0,0,1,8.6,7.92,10.39,10.39,0,0,1-1.51,8.19c-11,18.17-23.08,35.56-38.79,50.11A12.71,12.71,0,0,0,367.21,345.63Z" transform="translate(-223.45 -51.7)"/>
  <path d="M355.6,200.21c-2,0-3.69,0-5.36,0-4-.13-6.77-2.78-6.67-6.36s2.83-6,6.68-6.05c1.56,0,3.13,0,5,0,0-1.7,0-3.24,0-4.78q-1.35-39.76-2.71-79.52c-.22-6.64,1.84-8.67,8.54-8.57q15.68.24,31.35.57c4.08.08,6.82,2.65,6.8,6.24s-2.81,6.2-6.86,6.16c-7.79-.09-15.58-.29-23.36-.44-1.16,0-2.32,0-3.86,0l2.69,80.81c3.91,0,7.61,0,11.32,0,4,0,8.09,0,12.13.15a6.18,6.18,0,1,1-.12,12.36c-6.31,0-12.62-.13-18.93-.21-1.16,0-2.33,0-4,0l1.74,53.25c6.4,0,12.48,0,18.56,0,3,0,5.91-.3,8.87-.29a6.19,6.19,0,1,1,.29,12.38q-16.26.65-32.52,1.16c-4.93.15-7.25-2.17-7.41-7.1q-.92-28.38-1.87-56.76C355.85,202.31,355.72,201.44,355.6,200.21Z" transform="translate(-223.45 -51.7)"/>
  <path d="M556.65,162.79c.75-1.66,1.23-2.7,1.69-3.75l26-60.85a23.4,23.4,0,0,1,.95-2.16,6.36,6.36,0,0,1,8.34-2.9,6.2,6.2,0,0,1,3.31,8.15c-2.77,6.84-5.71,13.62-8.61,20.41q-13,30.43-25.89,60.88a13.56,13.56,0,0,0-1,5.1c-.07,22.78,0,45.56,0,68.34a26.28,26.28,0,0,1-.05,3,6.47,6.47,0,0,1-5.85,5.72,6.22,6.22,0,0,1-6.61-4.75,17,17,0,0,1-.36-4.1c0-24.75,0-49.5-.06-74.26a18.46,18.46,0,0,0-1-5.76q-12.23-36.23-24.59-72.42c-1.36-4,.17-7.38,3.74-8.69s6.82.49,8.33,4.46c.18.46.32.93.48,1.4l20,58.69C555.72,160.26,556.09,161.24,556.65,162.79Z" transform="translate(-223.45 -51.7)"/>
  <path d="M297.78,251.87c4.2-2.37,6.49-5.56,8.43-9,4.72-8.37,6.86-17.57,8.35-26.93,3.9-24.48,3.58-49.11,2-73.73-.88-13.85-2.5-27.66-3.74-41.5a10.19,10.19,0,0,1,.23-4.08,5.75,5.75,0,0,1,5.87-4.09,5.7,5.7,0,0,1,5.8,4.92c.88,5.64,1.56,11.32,2.11,17,2.06,21.3,3.45,42.64,3.06,64-.35,19.14-1.47,38.22-7.13,56.69-2.91,9.52-6.94,18.46-15,24.89-7.42,5.9-14.45,5.21-20.64-2.08-4.67-5.51-7.49-12-9.62-18.82-2.24-7.12-4-14.39-5.87-21.64a6.22,6.22,0,0,1,4.52-7.8c3.53-.8,6.74,1.35,7.58,5.26,2.12,9.83,4.46,19.6,9,28.66C294.11,246.52,296,249.1,297.78,251.87Z" transform="translate(-223.45 -51.7)"/>
  <path d="M427.1,254.06c11.66,0,22.89,0,34.13,0a12.1,12.1,0,0,1,3.5.37,6.12,6.12,0,0,1,4.22,6.67,6.19,6.19,0,0,1-6.14,5.34c-5.42.1-10.85,0-16.27,0h-24c-5.93,0-8.08-2.11-8-8q1.14-78.38,2.32-156.76c0-1.18,0-2.37,0-3.55a6.19,6.19,0,1,1,12.38,0c.08,2.86,0,5.72-.05,8.58q-1.08,71.43-2.18,142.86C427.08,251,427.1,252.34,427.1,254.06Z" transform="translate(-223.45 -51.7)"/>
  <path d="M492.18,254.06c11.65,0,22.89,0,34.12,0a12.14,12.14,0,0,1,3.5.37A6.12,6.12,0,0,1,534,261.1a6.19,6.19,0,0,1-6.13,5.35c-5.42.1-10.85,0-16.27,0h-24c-5.94,0-8.08-2.11-8-8q1.14-78.38,2.32-156.76c0-1.18,0-2.37,0-3.55a6.19,6.19,0,1,1,12.38,0c.08,2.86,0,5.72-.05,8.58q-1.08,71.43-2.18,142.86C492.17,251,492.18,252.34,492.18,254.06Z" transform="translate(-223.45 -51.7)"/>
  <path d="M318.41,462.58a42.75,42.75,0,0,1,5.13,3.6c3.4,3.2,2.86,7.44-1.09,9.93-5.48,3.46-19.81,2.83-24.64-1.35a10.62,10.62,0,0,1-2.63-4.71c-.2-.6.95-2.32,1.54-2.35a5.13,5.13,0,0,1,3,1.39c1,.85,1.66,2.52,2.79,2.94a24.56,24.56,0,0,0,16.22.5,8.67,8.67,0,0,0,2.25-1.65,9,9,0,0,0-1.86-2.11c-3.23-1.88-6.76-3.32-9.78-5.48a28.15,28.15,0,0,1-7-6.94c-2.08-3.1-1.34-5.5,1.27-8.21a13.61,13.61,0,0,1,15.26-3c7,3,8.18,10.1,2.57,15.16C320.52,461.15,319.42,461.83,318.41,462.58Zm-3.75-1.37c1.49-1.81,2.5-3.25,3.73-4.48,2.79-2.79,2.54-5.14-1-7a8.42,8.42,0,0,0-9.16.59c-2.56,1.73-2.95,3.39-.74,5.48A70.19,70.19,0,0,0,314.66,461.22Z" transform="translate(-223.45 -51.7)"/>
  <path d="M475.55,454.38a78.67,78.67,0,0,1,1.11-8.21c.24-1,1.54-1.83,2.36-2.73.77,1,2.21,1.94,2.2,2.9-.08,5.4-.54,10.79-.79,16.19-.1,2.16,0,4.33,0,6.5l1-.48c1.32.63,3,1,3.84,2,.49.59-.23,3.27-.59,3.31a48.41,48.41,0,0,1-6.83-.06l-.1-.91a14,14,0,0,0-.88,1.09c-1.94,2.94-4.59,4.65-8.17,4.26a9.14,9.14,0,0,1-8-6.14,16.61,16.61,0,0,1,1.77-15.77C465.53,451.66,469.44,451.14,475.55,454.38Zm-.08,10.11c0-3-1.88-4.77-3.61-6.5s-3.37-1.29-4.9.25c-2.82,2.83-3.54,9.61-1.42,13,1.85,3,5.43,3.19,7.13.22A51.44,51.44,0,0,0,475.48,464.49Z" transform="translate(-223.45 -51.7)"/>
  <path d="M575.58,465.79c-.13,1.17-.19,2.35-.4,3.51-1.15,6.16-4.45,9.62-9.06,9.58-5.37,0-10.86-4.83-11.78-10.26-1-6.08,3.35-13.65,9.09-15.72a7.86,7.86,0,0,1,10.39,4.58,73,73,0,0,1,2.12,8.19Zm-4.79,0,.38-.12a62.32,62.32,0,0,0-2-6.67c-.86-2.05-2.56-2.52-4.63-1.5-3.19,1.57-5.84,6.18-5.54,9.75.28,3.39,3.74,6.77,7,6.87,2.31.07,3.89-2,4.56-6C570.7,467.4,570.72,466.61,570.79,465.83Z" transform="translate(-223.45 -51.7)"/>
  <path d="M421.78,474.22c-2.21,1.28-4.16,2.82-6.39,3.61-4.07,1.43-7.55-.19-8.43-4.42s-.85-8.95-1.08-13.44a10.68,10.68,0,0,1,.51-4.37c.42-1.06,1.63-1.8,2.49-2.68.7,1,2,2,2,3,.08,3.63-.38,7.27-.42,10.9a20.24,20.24,0,0,0,.77,4.94c.41,1.65,1.78,2.47,3.1,1.44,1.68-1.31,3.73-3,4.21-4.83A53.36,53.36,0,0,0,419.7,457c.06-2,.45-3.45,2.53-3.55s2.33,1.53,2.36,3.28c.11,6-.46,12,2.61,17.62a3,3,0,0,1-1,2.86c-.68.37-2.18-.14-3-.73A6.89,6.89,0,0,1,421.78,474.22Z" transform="translate(-223.45 -51.7)"/>
  <path d="M361.12,459.53c.72-3.79,1.39-7.43,2.13-11.07.34-1.66.75-3.6,3-3.14s2,2.24,1.62,4c-.73,3.55-1.35,7.12-2,10.68l.61.82c1.29-.63,2.56-1.32,3.89-1.86,1.06-.43,2.19-.67,3.29-1,.31,1.22,1.14,2.58.84,3.62-.79,2.78-3.34,3.33-5.86,3.63-1,.11-1.92.1-3.39.17.32,2.47.29,4.87,1,7,.41,1.2,2.11,1.93,3.16,2.95.87.85,1.64,1.81,2.45,2.72-1.14.65-2.33,1.91-3.43,1.85a7.1,7.1,0,0,1-6.36-5,16.85,16.85,0,0,1-1.23-5.43c-.06-3,.06-5.82-3.95-6.54-.59-.11-.86-2-1.27-3.07a14.26,14.26,0,0,1,3-1.1A6.91,6.91,0,0,1,361.12,459.53Z" transform="translate(-223.45 -51.7)"/>
  <path d="M520.35,465c0,2.46,0,4.93,0,7.39,0,1.84-.87,3.14-2.88,2.88s-2.28-1.49-2.13-3.44c.34-4.5.32-9,.38-13.56,0-1.81.21-3.6,2.5-3.52,2.07.07,2.3,1.75,2.27,3.46,0,2.27,0,4.53,0,6.8Z" transform="translate(-223.45 -51.7)"/>
  <path d="M520.77,446.49c-.79.66-1.71,2.09-2.6,2.08-3.13-.06-2.65-2.94-2.83-4.85-.07-.81,1.52-2.55,2.29-2.51C520.49,441.34,519.95,444,520.77,446.49Z" transform="translate(-223.45 -51.7)"/>
</svg>